<svg width="157" height="29" viewBox="0 0 157 29" fill="none" xmlns="http://www.w3.org/2000/svg">
<g clip-path="url(#clip0_1_280)">
<path d="M95.6319 5.65013V24.0545H101.096V5.65013H95.6319ZM52.6172 5.61322V24.0299H58.1332V9.73452H62.4321C63.8435 9.74682 64.8276 10.079 65.5009 10.7679C66.3684 11.6414 66.718 13.0562 66.718 15.6397V24.0422H72.0657V13.8681C72.0657 6.59741 67.1842 5.61322 62.4321 5.61322H52.6172ZM104.45 5.65013V24.0545H113.319C118.046 24.0545 119.586 23.3041 121.244 21.6309C122.422 20.4622 123.186 17.8664 123.186 15.0492C123.186 12.4657 122.552 10.1528 121.412 8.71342C119.405 6.14222 116.492 5.63782 112.115 5.63782H104.45V5.65013ZM109.862 9.6484H112.206C115.624 9.6484 117.825 11.1001 117.825 14.8769C117.825 18.6538 115.624 20.1177 112.206 20.1177H109.862V9.6484ZM87.7463 5.65013L83.1884 20.2285L78.8248 5.65013H72.9203L79.1615 24.0545H87.0471L93.3529 5.65013H87.7722H87.7463ZM125.737 24.0545H131.201V5.65013H125.737V24.0545ZM141.068 5.65013L133.428 24.0422H138.815L140.032 20.7821H149.057L150.209 24.0299H156.075L148.371 5.65013H141.068ZM144.616 9.00868L147.931 17.6204H141.197L144.616 9.00868Z" fill="#B5B5B5"/>
<path d="M17.3327 8.71319V6.1912C17.5917 6.1789 17.8636 6.1543 18.1225 6.1543C25.4125 5.93285 30.1905 12.1087 30.1905 12.1087C30.1905 12.1087 25.037 18.9119 19.508 18.9119C18.77 18.9119 18.0449 18.8012 17.3586 18.5797V10.903C20.1943 11.2352 20.777 12.4162 22.4603 15.1104L26.2542 12.084C26.2542 12.084 23.4832 8.63938 18.8218 8.63938C18.3297 8.62708 17.8377 8.65168 17.3456 8.70089M17.3456 0.335266V4.1244L18.1355 4.07519C28.2612 3.74303 34.8778 11.9733 34.8778 11.9733C34.8778 11.9733 27.29 20.7449 19.3915 20.7449C18.7052 20.7449 18.0319 20.6834 17.3586 20.5727V22.9102C17.9154 22.9717 18.4851 23.0209 19.0548 23.0209C26.4095 23.0209 31.7313 19.4532 36.8848 15.2335C37.7394 15.8855 41.2355 17.4602 41.9606 18.1491C37.0661 22.049 25.6585 25.1861 19.1843 25.1861C18.5628 25.1861 17.9672 25.1492 17.3845 25.0877V28.3847H45.3272V0.347569H17.3327L17.3456 0.335266ZM17.3456 18.5674V20.5604C10.5477 19.404 8.65724 12.6869 8.65724 12.6869C8.65724 12.6869 11.9202 9.2545 17.3456 8.68859V10.8784H17.3327C14.497 10.5463 12.2569 13.0805 12.2569 13.0805C12.2569 13.0805 13.5259 17.3372 17.3456 18.5674ZM5.26476 12.4162C5.26476 12.4162 9.29172 6.76942 17.3456 6.1789V4.1244C8.42417 4.81334 0.706909 11.9856 0.706909 11.9856C0.706909 11.9856 5.07053 23.9928 17.3327 25.0877V22.8978C8.33353 21.8398 5.26476 12.4162 5.26476 12.4162Z" fill="#B5B5B5"/>
</g>
<defs>
<clipPath id="clip0_1_280">
<rect width="155.368" height="28.0248" fill="white" transform="translate(0.706909 0.347809)"/>
</clipPath>
</defs>
</svg>
